<?xml version="1.0" encoding="UTF-8"?>
<svg data-bbox="3.146 0.707 293.254 233.743" height="314" viewBox="0 0 300 235.5" width="400" xmlns="http://www.w3.org/2000/svg" data-type="color">
    <g>
        <defs>
            <clipPath id="d644e503-4068-42e0-a79b-e51224182410">
                <path d="M3 0h294v234.254H3Zm0 0"/>
            </clipPath>
        </defs>
        <g clip-path="url(#d644e503-4068-42e0-a79b-e51224182410)">
            <path d="m286.484 8.477-1.851-1.387c-6.02-4.863-13.43-6.945-20.375-6.254-7.406.695-14.121 3.937-18.985 9.727l-62.511 73.625-37.047 44.683-27.086 32.645-18.524-19.68-10.418-10.879-36.582-38.203c-5.324-5.555-12.27-8.336-19.68-8.797-6.945-.465-14.355 2.547-19.679 7.64l-1.851 1.852C.55 103.867.316 121.926 10.738 133.04l36.117 37.973 10.418 11.343 41.676 43.758c4.86 4.864 11.344 8.106 17.594 8.336h6.019c7.41-.695 14.126-3.937 18.989-9.726l62.047-73.625 24.312-29.403 62.047-73.625c9.727-11.808 8.336-29.406-3.473-39.593m0 0" fill="#00bf63" data-color="1"/>
            <path d="m286.484 8.477-1.851-1.387c-6.02-4.863-13.43-6.945-20.375-6.254-7.406.695-14.121 3.937-18.985 9.727l-62.511 73.625-37.047 44.683-27.086 32.645-18.524-19.68-10.418-10.879-36.582-38.203c-5.324-5.555-12.27-8.336-19.68-8.797-6.945-.465-14.355 2.547-19.679 7.64l-1.851 1.852C.55 103.867.316 121.926 10.738 133.04l36.117 37.973 10.418 11.343 41.676 43.758c4.86 4.864 11.344 8.106 17.594 8.336h6.019c7.41-.695 14.126-3.937 18.989-9.726l62.047-73.625 24.312-29.403 62.047-73.625c9.727-11.808 8.336-29.406-3.473-39.593m0 0" fill="#00bf63" data-color="1"/>
        </g>
    </g>
</svg>
