<?xml version="1.0" encoding="UTF-8"?>
<svg data-bbox="0 0.27 238.746 254.781" height="341" viewBox="0 0 239.25 255.75" width="319" xmlns="http://www.w3.org/2000/svg" data-type="ugc">
    <g>
        <defs>
            <clipPath id="393f131b-d15c-497d-bd83-a40268e71f0c">
                <path d="M0 16h238.504v239.227H0Zm0 0"/>
            </clipPath>
            <clipPath id="e913540a-f7e4-492a-8215-002a30a63fc9">
                <path d="M0 16h238.504v59H0Zm0 0"/>
            </clipPath>
            <clipPath id="8e8b0327-8618-4bd8-8395-80717cfb6ffc">
                <path d="M31 .273h14V33H31Zm0 0"/>
            </clipPath>
            <clipPath id="9faee3e8-b227-4e3d-935e-b1c159a9aa65">
                <path d="M54 .273h14V33H54Zm0 0"/>
            </clipPath>
            <clipPath id="52b31acc-2afa-438b-9c53-87af459754bb">
                <path d="M167 .273h14V33h-14Zm0 0"/>
            </clipPath>
            <clipPath id="457243fc-56e2-4dea-88d4-96c79f06c253">
                <path d="M190 .273h14V33h-14Zm0 0"/>
            </clipPath>
            <clipPath id="2f0b744e-4e07-49bc-ba95-f314522f0275">
                <path d="M0 62.633h238.504v184.652H0Zm0 0"/>
            </clipPath>
            <clipPath id="3ff9bc80-fb6a-4dee-a755-98f6091a370b">
                <path d="M14.207 62.633h210.078a14.204 14.204 0 0 1 14.203 14.207v156.238a14.206 14.206 0 0 1-14.203 14.207H14.207A14.206 14.206 0 0 1 0 233.078V76.84a14.206 14.206 0 0 1 14.207-14.207m0 0"/>
            </clipPath>
            <clipPath id="dd43c22a-9a87-49a9-b744-958f52f9de68">
                <path d="M0 62.637h238.504v184.668H0Zm0 0"/>
            </clipPath>
            <clipPath id="c6acfd97-76f6-406d-8a26-1c2a1b9a50df">
                <path d="M14.203 62.637h210.07A14.206 14.206 0 0 1 238.48 76.84v156.234a14.206 14.206 0 0 1-14.207 14.203H14.203A14.204 14.204 0 0 1 0 233.074V76.84a14.204 14.204 0 0 1 14.203-14.203m0 0"/>
            </clipPath>
            <clipPath id="767efcfd-9538-4961-9ca3-42007e34f7f5">
                <path d="M18.684 93.082h23.925v18.691H18.684Zm0 0"/>
            </clipPath>
            <clipPath id="60e5154f-b250-40fd-b7b9-24c580ab4d61">
                <path d="M54.082 93.082H78v18.691H54.082Zm0 0"/>
            </clipPath>
            <clipPath id="2d97a322-aa8f-4f8d-b0fd-52e1d93c3d45">
                <path d="M89.484 93.082h23.922v18.691H89.484Zm0 0"/>
            </clipPath>
            <clipPath id="ad8b0649-77fd-4395-aefb-dbebd4b9207e">
                <path d="M125 93.082h23.809v18.691H125Zm0 0"/>
            </clipPath>
            <clipPath id="953f8f4d-0147-4672-90dc-7e23f5fdef1a">
                <path d="M160.281 93.082H184v18.691h-23.719Zm0 0"/>
            </clipPath>
            <clipPath id="f52e46a2-b575-47d8-9541-382601fab4bf">
                <path d="M195.68 93.082h23.925v18.691H195.68Zm0 0"/>
            </clipPath>
            <clipPath id="4d15aea4-5e13-4627-902b-2ed76e8cc189">
                <path d="M18.684 128.031h23.925v18.692H18.684Zm0 0"/>
            </clipPath>
            <clipPath id="dbcbd33d-09c2-4faa-84d7-01d3afb2c37e">
                <path d="M54.082 128.031H78v18.692H54.082Zm0 0"/>
            </clipPath>
            <clipPath id="9e7579e4-fe6d-40f2-b386-724080f8532b">
                <path d="M89.484 128.031h23.922v18.692H89.484Zm0 0"/>
            </clipPath>
            <clipPath id="fb7e544f-51cc-4c88-9f79-8e327b4e641e">
                <path d="M125 128.031h23.809v18.692H125Zm0 0"/>
            </clipPath>
            <clipPath id="c70e63cd-7fba-4337-9687-f5f6f249399a">
                <path d="M160.281 128.031H184v18.692h-23.719Zm0 0"/>
            </clipPath>
            <clipPath id="5e75e3a8-6af9-4d26-b29f-48c151da0df5">
                <path d="M195.68 128.031h23.925v18.692H195.68Zm0 0"/>
            </clipPath>
            <clipPath id="7a066272-6225-48db-b29d-96117434172f">
                <path d="M18.684 163h23.925v18.672H18.684Zm0 0"/>
            </clipPath>
            <clipPath id="7072db9c-66ea-49ca-85b6-f14102eb726c">
                <path d="M54.082 163H78v18.672H54.082Zm0 0"/>
            </clipPath>
            <clipPath id="90880dd8-a162-4c09-aec4-1c64fc85be25">
                <path d="M89.484 163h23.922v18.672H89.484Zm0 0"/>
            </clipPath>
            <clipPath id="c82d7ac3-b6b4-4ca1-9cbb-0a81335019c7">
                <path d="M125 163h23.809v18.672H125Zm0 0"/>
            </clipPath>
            <clipPath id="ed18af5f-0aca-451f-af4f-0a9bee6fbeef">
                <path d="M160.281 163H184v18.672h-23.719Zm0 0"/>
            </clipPath>
            <clipPath id="02783202-5241-4bb1-9235-2de198da857f">
                <path d="M195.68 163h23.925v18.672H195.68Zm0 0"/>
            </clipPath>
            <clipPath id="af3501e1-5afc-436b-9d49-3a9688a3e615">
                <path d="M18.684 197.934h23.925v18.691H18.684Zm0 0"/>
            </clipPath>
            <clipPath id="c7e5a668-819b-4c09-b4fb-3d87d4f99ecd">
                <path d="M54.082 197.934H78v18.691H54.082Zm0 0"/>
            </clipPath>
            <clipPath id="cf12aa6a-3f6d-4795-938c-413faf5570b2">
                <path d="M89.484 197.934h23.922v18.691H89.484Zm0 0"/>
            </clipPath>
            <clipPath id="490d1c5b-dce7-435a-8b77-ebfca0bd4b68">
                <path d="M125 197.934h23.809v18.691H125Zm0 0"/>
            </clipPath>
            <clipPath id="2cddcfd6-012b-4af4-b6a4-a0c08726eb88">
                <path d="M160.281 197.934H184v18.691h-23.719Zm0 0"/>
            </clipPath>
            <clipPath id="eabe2718-0889-47bd-9b17-3449f7093507">
                <path d="M195.68 197.934h23.925v18.691H195.68Zm0 0"/>
            </clipPath>
        </defs>
        <g clip-path="url(#393f131b-d15c-497d-bd83-a40268e71f0c)">
            <path d="M226.816 255.05H11.66c-6.398 0-11.586-5.187-11.586-11.585V28.313c0-6.399 5.188-11.586 11.586-11.586h215.153c6.398 0 11.59 5.187 11.59 11.586v215.152c0 6.402-5.188 11.586-11.587 11.586m0 0" fill="#ffffff"/>
        </g>
        <g clip-path="url(#e913540a-f7e4-492a-8215-002a30a63fc9)">
            <path d="M238.402 74.605H.078V28.312c0-6.398 5.188-11.585 11.586-11.585h215.152c6.399 0 11.59 5.187 11.59 11.586v46.292Zm0 0" fill="#000000"/>
        </g>
        <g clip-path="url(#8e8b0327-8618-4bd8-8395-80717cfb6ffc)">
            <path d="M41.293 32.047h-5.797a3.533 3.533 0 0 1-3.531-3.531V3.805A3.536 3.536 0 0 1 35.496.27h5.797a3.536 3.536 0 0 1 3.531 3.535v24.71a3.533 3.533 0 0 1-3.531 3.532m0 0" fill="#000000"/>
        </g>
        <g clip-path="url(#9faee3e8-b227-4e3d-935e-b1c159a9aa65)">
            <path d="M63.938 32.047H58.14a3.533 3.533 0 0 1-3.532-3.531V3.805A3.536 3.536 0 0 1 58.141.27h5.797a3.536 3.536 0 0 1 3.53 3.535v24.71a3.533 3.533 0 0 1-3.53 3.532m0 0" fill="#000000"/>
        </g>
        <g clip-path="url(#52b31acc-2afa-438b-9c53-87af459754bb)">
            <path d="M177.152 32.047h-5.797a3.533 3.533 0 0 1-3.53-3.531V3.805a3.536 3.536 0 0 1 3.53-3.535h5.797a3.536 3.536 0 0 1 3.532 3.535v24.71a3.53 3.53 0 0 1-3.532 3.532m0 0" fill="#000000"/>
        </g>
        <g clip-path="url(#457243fc-56e2-4dea-88d4-96c79f06c253)">
            <path d="M199.797 32.047H194a3.533 3.533 0 0 1-3.531-3.531V3.805A3.536 3.536 0 0 1 194 .27h5.797a3.536 3.536 0 0 1 3.531 3.535v24.71a3.53 3.53 0 0 1-3.531 3.532m0 0" fill="#000000"/>
        </g>
        <path d="M42.715 112.91H21.77a3.433 3.433 0 0 1-3.43-3.433V88.53a3.43 3.43 0 0 1 3.43-3.43h20.945a3.43 3.43 0 0 1 3.433 3.43v20.946a3.43 3.43 0 0 1-3.433 3.433m0 0" fill="#ffffff"/>
        <path d="M78.133 112.91h-20.95a3.433 3.433 0 0 1-3.43-3.433V88.53a3.43 3.43 0 0 1 3.43-3.43h20.95a3.43 3.43 0 0 1 3.43 3.43v20.946a3.435 3.435 0 0 1-3.43 3.433m0 0" fill="#ffffff"/>
        <path d="M113.543 112.91h-20.95a3.433 3.433 0 0 1-3.429-3.433V88.53a3.43 3.43 0 0 1 3.43-3.43h20.949a3.43 3.43 0 0 1 3.43 3.43v20.946a3.435 3.435 0 0 1-3.43 3.433m0 0" fill="#ffffff"/>
        <path d="M148.953 112.91h-20.95a3.433 3.433 0 0 1-3.429-3.433V88.53a3.43 3.43 0 0 1 3.43-3.43h20.95a3.43 3.43 0 0 1 3.429 3.43v20.946a3.435 3.435 0 0 1-3.43 3.433m0 0" fill="#ffffff"/>
        <path d="M184.363 112.91h-20.945a3.433 3.433 0 0 1-3.434-3.433V88.53a3.43 3.43 0 0 1 3.434-3.43h20.945a3.43 3.43 0 0 1 3.43 3.43v20.946a3.433 3.433 0 0 1-3.43 3.433m0 0" fill="#ffffff"/>
        <path d="M219.773 112.91h-20.945a3.433 3.433 0 0 1-3.433-3.433V88.53a3.43 3.43 0 0 1 3.433-3.43h20.945a3.43 3.43 0 0 1 3.43 3.43v20.946a3.433 3.433 0 0 1-3.43 3.433m0 0" fill="#ffffff"/>
        <path d="M42.715 147.332H21.77a3.43 3.43 0 0 1-3.43-3.43v-20.945a3.43 3.43 0 0 1 3.43-3.43h20.945a3.43 3.43 0 0 1 3.433 3.43v20.945a3.43 3.43 0 0 1-3.433 3.43m0 0" fill="#ffffff"/>
        <path d="M78.133 147.332h-20.95a3.43 3.43 0 0 1-3.43-3.43v-20.945a3.43 3.43 0 0 1 3.43-3.43h20.95a3.43 3.43 0 0 1 3.43 3.43v20.945a3.434 3.434 0 0 1-3.43 3.43m0 0" fill="#ffffff"/>
        <path d="M113.543 147.332h-20.95a3.43 3.43 0 0 1-3.429-3.43v-20.945a3.43 3.43 0 0 1 3.43-3.43h20.949a3.43 3.43 0 0 1 3.43 3.43v20.945a3.434 3.434 0 0 1-3.43 3.43m0 0" fill="#ffffff"/>
        <path d="M148.953 147.332h-20.95a3.43 3.43 0 0 1-3.429-3.43v-20.945a3.43 3.43 0 0 1 3.43-3.43h20.95a3.43 3.43 0 0 1 3.429 3.43v20.945a3.434 3.434 0 0 1-3.43 3.43m0 0" fill="#ffffff"/>
        <path d="M184.363 147.332h-20.945a3.43 3.43 0 0 1-3.434-3.43v-20.945a3.43 3.43 0 0 1 3.434-3.43h20.945a3.43 3.43 0 0 1 3.43 3.43v20.945c0 1.895-1.54 3.43-3.43 3.43m0 0" fill="#ffffff"/>
        <path d="M219.773 147.332h-20.945a3.43 3.43 0 0 1-3.433-3.43v-20.945a3.43 3.43 0 0 1 3.433-3.43h20.945a3.43 3.43 0 0 1 3.43 3.43v20.945a3.43 3.43 0 0 1-3.43 3.43m0 0" fill="#ffffff"/>
        <path d="M42.715 181.754H21.77a3.43 3.43 0 0 1-3.43-3.43V157.38a3.433 3.433 0 0 1 3.43-3.434h20.945a3.433 3.433 0 0 1 3.433 3.434v20.945a3.43 3.43 0 0 1-3.433 3.43m0 0" fill="#ffffff"/>
        <path d="M78.133 181.754h-20.95a3.43 3.43 0 0 1-3.43-3.43V157.38a3.433 3.433 0 0 1 3.43-3.434h20.95c1.89 0 3.43 1.535 3.43 3.434v20.945a3.43 3.43 0 0 1-3.43 3.43m0 0" fill="#ffffff"/>
        <path d="M113.543 181.754h-20.95a3.43 3.43 0 0 1-3.429-3.43V157.38a3.433 3.433 0 0 1 3.43-3.434h20.949c1.89 0 3.43 1.535 3.43 3.434v20.945a3.43 3.43 0 0 1-3.43 3.43m0 0" fill="#ffffff"/>
        <path d="M148.953 181.754h-20.95a3.43 3.43 0 0 1-3.429-3.43V157.38a3.433 3.433 0 0 1 3.43-3.434h20.95a3.43 3.43 0 0 1 3.429 3.434v20.945a3.43 3.43 0 0 1-3.43 3.43m0 0" fill="#ffffff"/>
        <path d="M184.363 181.754h-20.945a3.43 3.43 0 0 1-3.434-3.43V157.38a3.433 3.433 0 0 1 3.434-3.434h20.945c1.89 0 3.43 1.535 3.43 3.434v20.945a3.43 3.43 0 0 1-3.43 3.43m0 0" fill="#ffffff"/>
        <path d="M219.773 181.754h-20.945a3.43 3.43 0 0 1-3.433-3.43V157.38a3.433 3.433 0 0 1 3.433-3.434h20.945a3.433 3.433 0 0 1 3.43 3.434v20.945a3.43 3.43 0 0 1-3.43 3.43m0 0" fill="#ffffff"/>
        <path d="M42.715 218.074H21.77a3.43 3.43 0 0 1-3.43-3.43v-20.949c0-1.89 1.535-3.43 3.43-3.43h20.945a3.433 3.433 0 0 1 3.433 3.43v20.95a3.43 3.43 0 0 1-3.433 3.43m0 0" fill="#ffffff"/>
        <path d="M78.133 218.074h-20.95a3.43 3.43 0 0 1-3.43-3.43v-20.949c0-1.89 1.536-3.43 3.43-3.43h20.95c1.89 0 3.43 1.536 3.43 3.43v20.95a3.434 3.434 0 0 1-3.43 3.43m0 0" fill="#ffffff"/>
        <path d="M113.543 218.074h-20.95a3.43 3.43 0 0 1-3.429-3.43v-20.949c0-1.89 1.535-3.43 3.43-3.43h20.949c1.89 0 3.43 1.536 3.43 3.43v20.95a3.434 3.434 0 0 1-3.43 3.43m0 0" fill="#ffffff"/>
        <path d="M148.953 218.074h-20.95a3.43 3.43 0 0 1-3.429-3.43v-20.949c0-1.89 1.535-3.43 3.43-3.43h20.95a3.43 3.43 0 0 1 3.429 3.43v20.95a3.434 3.434 0 0 1-3.43 3.43m0 0" fill="#ffffff"/>
        <path d="M184.363 218.074h-20.945a3.433 3.433 0 0 1-3.434-3.43v-20.949c0-1.89 1.536-3.43 3.434-3.43h20.945c1.89 0 3.43 1.536 3.43 3.43v20.95c0 1.894-1.54 3.43-3.43 3.43m0 0" fill="#ffffff"/>
        <path d="M219.773 218.074h-20.945a3.433 3.433 0 0 1-3.433-3.43v-20.949c0-1.89 1.535-3.43 3.433-3.43h20.945a3.43 3.43 0 0 1 3.43 3.43v20.95a3.43 3.43 0 0 1-3.43 3.43m0 0" fill="#ffffff"/>
        <g clip-path="url(#2f0b744e-4e07-49bc-ba95-f314522f0275)">
            <g clip-path="url(#3ff9bc80-fb6a-4dee-a755-98f6091a370b)">
                <path d="M0 62.633h238.746v184.652H0Zm0 0" fill="#ffffff"/>
            </g>
        </g>
        <g clip-path="url(#dd43c22a-9a87-49a9-b744-958f52f9de68)">
            <g clip-path="url(#c6acfd97-76f6-406d-8a26-1c2a1b9a50df)">
                <path stroke-width="22.43" stroke="#000000" d="M14.203 62.636h210.072a14.206 14.206 0 0 1 14.207 14.204v156.235a14.206 14.206 0 0 1-14.207 14.203H14.203A14.204 14.204 0 0 1 0 233.075V76.84a14.204 14.204 0 0 1 14.203-14.204Zm0 0" fill="none"/>
            </g>
        </g>
        <g clip-path="url(#767efcfd-9538-4961-9ca3-42007e34f7f5)">
            <path d="m41.555 93.754-.149-.11a2.26 2.26 0 0 0-1.629-.5c-.59.06-1.129.317-1.515.778l-4.996 5.867-2.961 3.559-2.164 2.601-1.48-1.566-.833-.867-2.926-3.047c-.425-.442-.98-.664-1.57-.7-.555-.039-1.148.204-1.574.61l-.149.148c-.906.828-.925 2.27-.09 3.153l2.883 3.027.836.902 3.328 3.489c.391.386.907.644 1.407.664h.48a2.22 2.22 0 0 0 1.52-.774l4.957-5.867 1.945-2.344 4.957-5.867a2.26 2.26 0 0 0-.277-3.156m0 0" fill="#000000"/>
        </g>
        <g clip-path="url(#60e5154f-b250-40fd-b7b9-24c580ab4d61)">
            <path d="m76.953 93.754-.148-.11a2.25 2.25 0 0 0-1.625-.5 2.24 2.24 0 0 0-1.52.778l-4.996 5.867-2.96 3.559-2.165 2.601-1.48-1.566-.832-.867-2.922-3.047c-.426-.442-.985-.664-1.575-.7-.554-.039-1.148.204-1.574.61l-.148.148c-.906.828-.926 2.27-.09 3.153l2.887 3.027.832.902 3.328 3.489c.39.386.91.644 1.406.664h.484a2.2 2.2 0 0 0 1.516-.774l4.957-5.867 1.945-2.344 4.957-5.867a2.26 2.26 0 0 0-.277-3.156m0 0" fill="#000000"/>
        </g>
        <g clip-path="url(#2d97a322-aa8f-4f8d-b0fd-52e1d93c3d45)">
            <path d="m112.352 93.754-.145-.11a2.27 2.27 0 0 0-1.629-.5 2.24 2.24 0 0 0-1.52.778l-4.996 5.867-2.96 3.559-2.165 2.601-1.48-1.566-.832-.867-2.922-3.047c-.426-.442-.98-.664-1.574-.7-.555-.039-1.149.204-1.574.61l-.149.148c-.906.828-.922 2.27-.09 3.153l2.887 3.027.832.902 3.332 3.489c.387.386.906.644 1.406.664h.481a2.2 2.2 0 0 0 1.516-.774l4.96-5.867 1.942-2.344 4.957-5.867a2.26 2.26 0 0 0-.277-3.156m0 0" fill="#000000"/>
        </g>
        <g clip-path="url(#ad8b0649-77fd-4395-aefb-dbebd4b9207e)">
            <path d="m147.754 93.754-.149-.11a2.27 2.27 0 0 0-1.628-.5 2.24 2.24 0 0 0-1.52.778l-4.996 5.867-2.957 3.559-2.168 2.601-1.48-1.566-.833-.867-2.921-3.047c-.426-.442-.98-.664-1.575-.7-.554-.039-1.148.204-1.574.61l-.144.148c-.91.828-.926 2.27-.094 3.153l2.887 3.027.832.902 3.332 3.489c.386.386.906.644 1.406.664h.48a2.2 2.2 0 0 0 1.516-.774l4.96-5.867 1.942-2.344 4.961-5.867a2.265 2.265 0 0 0-.277-3.156m0 0" fill="#000000"/>
        </g>
        <g clip-path="url(#953f8f4d-0147-4672-90dc-7e23f5fdef1a)">
            <path d="m183.152 93.754-.148-.11a2.26 2.26 0 0 0-1.629-.5c-.594.06-1.129.317-1.516.778l-4.996 5.867-2.96 3.559-2.169 2.601-1.48-1.566-.832-.867-2.922-3.047c-.426-.442-.98-.664-1.574-.7-.555-.039-1.145.204-1.57.61l-.149.148c-.906.828-.926 2.27-.094 3.153l2.887 3.027.832.902 3.332 3.489c.387.386.906.644 1.406.664h.481a2.2 2.2 0 0 0 1.515-.774l4.961-5.867 1.942-2.344 4.96-5.867a2.265 2.265 0 0 0-.277-3.156m0 0" fill="#000000"/>
        </g>
        <g clip-path="url(#f52e46a2-b575-47d8-9541-382601fab4bf)">
            <path d="m218.55 93.754-.148-.11a2.26 2.26 0 0 0-1.629-.5c-.593.06-1.128.317-1.515.778l-4.996 5.867-2.961 3.559-2.164 2.601-1.48-1.566-.837-.867-2.922-3.047c-.425-.442-.98-.664-1.574-.7-.554-.039-1.144.204-1.57.61l-.149.148c-.906.828-.925 2.27-.093 3.153l2.886 3.027.832.902 3.333 3.489c.386.386.906.644 1.406.664h.48a2.22 2.22 0 0 0 1.52-.774l4.957-5.867 1.941-2.344 4.961-5.867a2.265 2.265 0 0 0-.277-3.156m0 0" fill="#000000"/>
        </g>
        <g clip-path="url(#4d15aea4-5e13-4627-902b-2ed76e8cc189)">
            <path d="m41.555 128.707-.149-.113a2.25 2.25 0 0 0-1.629-.496 2.2 2.2 0 0 0-1.515.773l-4.996 5.867-2.961 3.563-2.164 2.601-1.48-1.57-.833-.867-2.926-3.043c-.425-.445-.98-.664-1.57-.703-.555-.035-1.148.203-1.574.61l-.149.148c-.906.832-.925 2.27-.09 3.156l2.883 3.023.836.906 3.328 3.485c.391.39.907.648 1.407.664h.48a2.22 2.22 0 0 0 1.52-.774l4.957-5.867 1.945-2.343 4.957-5.868a2.256 2.256 0 0 0-.277-3.152m0 0" fill="#000000"/>
        </g>
        <g clip-path="url(#dbcbd33d-09c2-4faa-84d7-01d3afb2c37e)">
            <path d="m76.953 128.707-.148-.113a2.25 2.25 0 0 0-1.625-.496 2.22 2.22 0 0 0-1.52.773l-4.996 5.867-2.96 3.563-2.165 2.601-1.48-1.57-.832-.867-2.922-3.043c-.426-.445-.985-.664-1.575-.703-.554-.035-1.148.203-1.574.61l-.148.148c-.906.832-.926 2.27-.09 3.156l2.887 3.023.832.906 3.328 3.485c.39.39.91.648 1.406.664h.484a2.2 2.2 0 0 0 1.516-.774l4.957-5.867 1.945-2.343 4.957-5.868a2.256 2.256 0 0 0-.277-3.152m0 0" fill="#000000"/>
        </g>
        <g clip-path="url(#9e7579e4-fe6d-40f2-b386-724080f8532b)">
            <path d="m112.352 128.707-.145-.113a2.26 2.26 0 0 0-1.629-.496 2.22 2.22 0 0 0-1.52.773l-4.996 5.867-2.96 3.563-2.165 2.601-1.48-1.57-.832-.867-2.922-3.043c-.426-.445-.98-.664-1.574-.703-.555-.035-1.149.203-1.574.61l-.149.148c-.906.832-.922 2.27-.09 3.156l2.887 3.023.832.906 3.332 3.485c.387.39.906.648 1.406.664h.481a2.2 2.2 0 0 0 1.516-.774l4.96-5.867 1.942-2.343 4.957-5.868a2.256 2.256 0 0 0-.277-3.152m0 0" fill="#000000"/>
        </g>
        <g clip-path="url(#fb7e544f-51cc-4c88-9f79-8e327b4e641e)">
            <path d="m147.754 128.707-.149-.113a2.26 2.26 0 0 0-1.628-.496 2.22 2.22 0 0 0-1.52.773l-4.996 5.867-2.957 3.563-2.168 2.601-1.48-1.57-.833-.867-2.921-3.043c-.426-.445-.98-.664-1.575-.703-.554-.035-1.148.203-1.574.61l-.144.148c-.91.832-.926 2.27-.094 3.156l2.887 3.023.832.906 3.332 3.485c.386.39.906.648 1.406.664h.48a2.2 2.2 0 0 0 1.516-.774l4.96-5.867 1.942-2.343 4.961-5.868a2.26 2.26 0 0 0-.277-3.152m0 0" fill="#000000"/>
        </g>
        <g clip-path="url(#c70e63cd-7fba-4337-9687-f5f6f249399a)">
            <path d="m183.152 128.707-.148-.113a2.26 2.26 0 0 0-1.629-.496 2.2 2.2 0 0 0-1.516.773l-4.996 5.867-2.96 3.563-2.169 2.601-1.48-1.57-.832-.867-2.922-3.043c-.426-.445-.98-.664-1.574-.703-.555-.035-1.145.203-1.57.61l-.149.148c-.906.832-.926 2.27-.094 3.156l2.887 3.023.832.906 3.332 3.485c.387.39.906.648 1.406.664h.481a2.2 2.2 0 0 0 1.515-.774l4.961-5.867 1.942-2.343 4.96-5.868a2.26 2.26 0 0 0-.277-3.152m0 0" fill="#000000"/>
        </g>
        <g clip-path="url(#5e75e3a8-6af9-4d26-b29f-48c151da0df5)">
            <path d="m218.55 128.707-.148-.113a2.26 2.26 0 0 0-1.629-.496 2.2 2.2 0 0 0-1.515.773l-4.996 5.867-2.961 3.563-2.164 2.601-1.48-1.57-.837-.867-2.922-3.043c-.425-.445-.98-.664-1.574-.703-.554-.035-1.144.203-1.57.61l-.149.148c-.906.832-.925 2.27-.093 3.156l2.886 3.023.832.906 3.333 3.485c.386.39.906.648 1.406.664h.48a2.22 2.22 0 0 0 1.52-.774l4.957-5.867 1.941-2.343 4.961-5.868a2.26 2.26 0 0 0-.277-3.152m0 0" fill="#000000"/>
        </g>
        <g clip-path="url(#7a066272-6225-48db-b29d-96117434172f)">
            <path d="m41.555 163.656-.149-.11a2.26 2.26 0 0 0-1.629-.5 2.2 2.2 0 0 0-1.515.778l-4.996 5.863-2.961 3.563-2.164 2.602-1.48-1.567-.833-.867-2.926-3.047c-.425-.441-.98-.664-1.57-.7-.555-.038-1.148.204-1.574.61l-.149.145c-.906.832-.925 2.27-.09 3.156l2.883 3.027.836.903L26.566 181c.391.387.907.645 1.407.664h.48a2.22 2.22 0 0 0 1.52-.777l4.957-5.867 1.945-2.34 4.957-5.868a2.26 2.26 0 0 0-.277-3.156m0 0" fill="#000000"/>
        </g>
        <g clip-path="url(#7072db9c-66ea-49ca-85b6-f14102eb726c)">
            <path d="m76.953 163.656-.148-.11a2.25 2.25 0 0 0-1.625-.5 2.2 2.2 0 0 0-1.52.778l-4.996 5.863-2.96 3.563-2.165 2.602-1.48-1.567-.832-.867-2.922-3.047c-.426-.441-.985-.664-1.575-.7-.554-.038-1.148.204-1.574.61l-.148.145c-.906.832-.926 2.27-.09 3.156l2.887 3.027.832.903L61.965 181c.39.387.91.645 1.406.664h.484a2.22 2.22 0 0 0 1.516-.777l4.957-5.867 1.945-2.34 4.957-5.868a2.26 2.26 0 0 0-.277-3.156m0 0" fill="#000000"/>
        </g>
        <g clip-path="url(#90880dd8-a162-4c09-aec4-1c64fc85be25)">
            <path d="m112.352 163.656-.145-.11a2.27 2.27 0 0 0-1.629-.5 2.2 2.2 0 0 0-1.52.778l-4.996 5.863-2.96 3.563-2.165 2.602-1.48-1.567-.832-.867-2.922-3.047c-.426-.441-.98-.664-1.574-.7-.555-.038-1.149.204-1.574.61l-.149.145c-.906.832-.922 2.27-.09 3.156l2.887 3.027.832.903L97.367 181c.387.387.906.645 1.406.664h.481a2.22 2.22 0 0 0 1.516-.777l4.96-5.867 1.942-2.34 4.957-5.868a2.26 2.26 0 0 0-.277-3.156m0 0" fill="#000000"/>
        </g>
        <g clip-path="url(#c82d7ac3-b6b4-4ca1-9cbb-0a81335019c7)">
            <path d="m147.754 163.656-.149-.11a2.27 2.27 0 0 0-1.628-.5 2.2 2.2 0 0 0-1.52.778l-4.996 5.863-2.957 3.563-2.168 2.602-1.48-1.567-.833-.867-2.921-3.047c-.426-.441-.98-.664-1.575-.7-.554-.038-1.148.204-1.574.61l-.144.145c-.91.832-.926 2.27-.094 3.156l2.887 3.027.832.903 3.332 3.488c.386.387.906.645 1.406.664h.48a2.22 2.22 0 0 0 1.516-.777l4.96-5.867 1.942-2.34 4.961-5.868a2.265 2.265 0 0 0-.277-3.156m0 0" fill="#000000"/>
        </g>
        <g clip-path="url(#ed18af5f-0aca-451f-af4f-0a9bee6fbeef)">
            <path d="m183.152 163.656-.148-.11a2.26 2.26 0 0 0-1.629-.5 2.2 2.2 0 0 0-1.516.778l-4.996 5.863-2.96 3.563-2.169 2.602-1.48-1.567-.832-.867-2.922-3.047c-.426-.441-.98-.664-1.574-.7-.555-.038-1.145.204-1.57.61l-.149.145c-.906.832-.926 2.27-.094 3.156l2.887 3.027.832.903 3.332 3.488c.387.387.906.645 1.406.664h.481a2.2 2.2 0 0 0 1.515-.777l4.961-5.867 1.942-2.34 4.96-5.868a2.265 2.265 0 0 0-.277-3.156m0 0" fill="#000000"/>
        </g>
        <g clip-path="url(#02783202-5241-4bb1-9235-2de198da857f)">
            <path d="m218.55 163.656-.148-.11a2.26 2.26 0 0 0-1.629-.5 2.2 2.2 0 0 0-1.515.778l-4.996 5.863-2.961 3.563-2.164 2.602-1.48-1.567-.837-.867-2.922-3.047c-.425-.441-.98-.664-1.574-.7-.554-.038-1.144.204-1.57.61l-.149.145c-.906.832-.925 2.27-.093 3.156l2.886 3.027.832.903 3.333 3.488c.386.387.906.645 1.406.664h.48a2.22 2.22 0 0 0 1.52-.777l4.957-5.867 1.941-2.34 4.961-5.868a2.265 2.265 0 0 0-.277-3.156m0 0" fill="#000000"/>
        </g>
        <g clip-path="url(#af3501e1-5afc-436b-9d49-3a9688a3e615)">
            <path d="m41.555 198.605-.149-.109a2.24 2.24 0 0 0-1.629-.496 2.2 2.2 0 0 0-1.515.773l-4.996 5.868-2.961 3.558-2.164 2.602-1.48-1.567-.833-.867-2.926-3.043c-.425-.445-.98-.664-1.57-.703-.555-.035-1.148.203-1.574.61l-.149.148c-.906.828-.925 2.27-.09 3.152l2.883 3.028.836.902 3.328 3.488c.391.387.907.645 1.407.664h.48a2.22 2.22 0 0 0 1.52-.773l4.957-5.867 1.945-2.344 4.957-5.867a2.26 2.26 0 0 0-.277-3.157m0 0" fill="#000000"/>
        </g>
        <g clip-path="url(#c7e5a668-819b-4c09-b4fb-3d87d4f99ecd)">
            <path d="m76.953 198.605-.148-.109A2.23 2.23 0 0 0 75.18 198a2.22 2.22 0 0 0-1.52.773l-4.996 5.868-2.96 3.558-2.165 2.602-1.48-1.567-.832-.867-2.922-3.043c-.426-.445-.985-.664-1.575-.703-.554-.035-1.148.203-1.574.61l-.148.148c-.906.828-.926 2.27-.09 3.152l2.887 3.028.832.902 3.328 3.488c.39.387.91.645 1.406.664h.484a2.2 2.2 0 0 0 1.516-.773l4.957-5.867 1.945-2.344 4.957-5.867a2.26 2.26 0 0 0-.277-3.157m0 0" fill="#000000"/>
        </g>
        <g clip-path="url(#cf12aa6a-3f6d-4795-938c-413faf5570b2)">
            <path d="m112.352 198.605-.145-.109a2.25 2.25 0 0 0-1.629-.496 2.22 2.22 0 0 0-1.52.773l-4.996 5.868-2.96 3.558-2.165 2.602-1.48-1.567-.832-.867-2.922-3.043c-.426-.445-.98-.664-1.574-.703-.555-.035-1.149.203-1.574.61l-.149.148c-.906.828-.922 2.27-.09 3.152l2.887 3.028.832.902 3.332 3.488c.387.387.906.645 1.406.664h.481a2.2 2.2 0 0 0 1.516-.773l4.96-5.867 1.942-2.344 4.957-5.867a2.26 2.26 0 0 0-.277-3.157m0 0" fill="#000000"/>
        </g>
        <g clip-path="url(#490d1c5b-dce7-435a-8b77-ebfca0bd4b68)">
            <path d="m147.754 198.605-.149-.109a2.25 2.25 0 0 0-1.628-.496 2.22 2.22 0 0 0-1.52.773l-4.996 5.868-2.957 3.558-2.168 2.602-1.48-1.567-.833-.867-2.921-3.043c-.426-.445-.98-.664-1.575-.703-.554-.035-1.148.203-1.574.61l-.144.148c-.91.828-.926 2.27-.094 3.152l2.887 3.028.832.902 3.332 3.488c.386.387.906.645 1.406.664h.48a2.2 2.2 0 0 0 1.516-.773l4.96-5.867 1.942-2.344 4.961-5.867a2.265 2.265 0 0 0-.277-3.157m0 0" fill="#000000"/>
        </g>
        <g clip-path="url(#2cddcfd6-012b-4af4-b6a4-a0c08726eb88)">
            <path d="m183.152 198.605-.148-.109a2.24 2.24 0 0 0-1.629-.496 2.2 2.2 0 0 0-1.516.773l-4.996 5.868-2.96 3.558-2.169 2.602-1.48-1.567-.832-.867-2.922-3.043c-.426-.445-.98-.664-1.574-.703-.555-.035-1.145.203-1.57.61l-.149.148c-.906.828-.926 2.27-.094 3.152L164 211.56l.832.902 3.332 3.488c.387.387.906.645 1.406.664h.481a2.2 2.2 0 0 0 1.515-.773l4.961-5.867 1.942-2.344 4.96-5.867a2.265 2.265 0 0 0-.277-3.157m0 0" fill="#000000"/>
        </g>
        <g clip-path="url(#eabe2718-0889-47bd-9b17-3449f7093507)">
            <path d="m218.55 198.605-.148-.109a2.24 2.24 0 0 0-1.629-.496 2.2 2.2 0 0 0-1.515.773l-4.996 5.868-2.961 3.558-2.164 2.602-1.48-1.567-.837-.867-2.922-3.043c-.425-.445-.98-.664-1.574-.703-.554-.035-1.144.203-1.57.61l-.149.148c-.906.828-.925 2.27-.093 3.152l2.886 3.028.832.902 3.333 3.488c.386.387.906.645 1.406.664h.48a2.22 2.22 0 0 0 1.52-.773l4.957-5.867 1.941-2.344 4.961-5.867a2.265 2.265 0 0 0-.277-3.157m0 0" fill="#000000"/>
        </g>
    </g>
</svg>
