<?xml version="1.0" encoding="UTF-8"?>
<svg data-bbox="0.127 0 119.276 117.09" height="157" viewBox="0 0 120 117.75" width="160" xmlns="http://www.w3.org/2000/svg" data-type="ugc">
    <g>
        <defs>
            <clipPath id="acb3274a-7abb-47bd-8197-a8c841f2e949">
                <path d="M.129 0h89.809v89.809H.127Zm0 0"/>
            </clipPath>
            <clipPath id="13b9f808-ad68-4d2d-bba5-ed640f528f91">
                <path d="M14.348 0h61.367c3.773 0 7.39 1.5 10.058 4.164a14.24 14.24 0 0 1 4.165 10.055v61.37a14.22 14.22 0 0 1-14.223 14.219H14.348A14.22 14.22 0 0 1 .129 75.59V14.22A14.22 14.22 0 0 1 14.348 0m0 0"/>
            </clipPath>
            <clipPath id="b983cf72-1f9a-4810-89c8-eada479ab5cc">
                <path d="M10.023 9.086h17.204v17.203H10.023Zm0 0"/>
            </clipPath>
            <clipPath id="84737c77-8c2f-428e-b0d0-d8c111dbef2b">
                <path d="M18.625 9.086a8.602 8.602 0 1 0 .001 17.204 8.602 8.602 0 0 0-.001-17.204m0 0"/>
            </clipPath>
            <clipPath id="fc2a8db6-3cf1-41b2-a860-735eff84a26d">
                <path d="M10.023 66.559H45.04v5.62H10.023Zm0 0"/>
            </clipPath>
            <clipPath id="44adada1-be4e-46cd-add7-6a81c4a7ec12">
                <path d="M11.523 66.559h32.012c.828 0 1.496.671 1.496 1.5v2.625c0 .828-.668 1.496-1.496 1.496H11.523c-.828 0-1.5-.668-1.5-1.496v-2.625a1.5 1.5 0 0 1 1.5-1.5m0 0"/>
            </clipPath>
            <clipPath id="2dc6859e-30aa-42aa-b73e-0a2b923a168d">
                <path d="M10.023 74.645h70.028v5.617H10.023Zm0 0"/>
            </clipPath>
            <clipPath id="5b5745e0-5054-4f7d-bdd7-651681c433ad">
                <path d="M11.523 74.645h67.02c.824 0 1.496.668 1.496 1.496v2.625c0 .828-.672 1.496-1.496 1.496h-67.02c-.828 0-1.5-.668-1.5-1.496V76.14c0-.829.672-1.496 1.5-1.496m0 0"/>
            </clipPath>
            <clipPath id="dfecb2bc-dadc-443c-9cc5-7bd80ba9dbfb">
                <path d="M14.86 13.64h89.812v89.81H14.859Zm0 0"/>
            </clipPath>
            <clipPath id="d8d4e6a8-254f-4429-aa4a-9ee031059fb4">
                <path d="M29.082 13.64h61.367a14.22 14.22 0 0 1 14.223 14.219V89.23a14.22 14.22 0 0 1-14.223 14.22H29.082a14.22 14.22 0 0 1-14.223-14.22V27.86a14.22 14.22 0 0 1 14.223-14.22m0 0"/>
            </clipPath>
            <clipPath id="f36043ff-a28a-4cf3-9d8d-87ba1e38c90a">
                <path d="M24.758 22.727H41.96V39.93H24.758Zm0 0"/>
            </clipPath>
            <clipPath id="7a9cd0b7-3ec5-43be-a838-2e76590b2d6c">
                <path d="M33.36 22.727a8.602 8.602 0 1 0 .001 17.202 8.602 8.602 0 0 0-.002-17.202m0 0"/>
            </clipPath>
            <clipPath id="21d87f61-6f1a-4515-8253-8f906791feb6">
                <path d="M24.758 80.2h35.015v5.62H24.758Zm0 0"/>
            </clipPath>
            <clipPath id="e718cf44-9ca7-43fe-9b52-b527b36243d1">
                <path d="M26.254 80.2H58.27c.824 0 1.496.671 1.496 1.495v2.63c0 .823-.672 1.495-1.496 1.495H26.254a1.5 1.5 0 0 1-1.496-1.496v-2.629c0-.824.672-1.496 1.496-1.496m0 0"/>
            </clipPath>
            <clipPath id="ce5527cd-969f-42ad-865d-75606cc97546">
                <path d="M24.758 88.281h70.027v5.621H24.758Zm0 0"/>
            </clipPath>
            <clipPath id="2272b6ab-1b2f-4a17-bd4d-1713316dd2ba">
                <path d="M26.254 88.281h67.023a1.5 1.5 0 0 1 1.496 1.5v2.625c0 .828-.671 1.496-1.496 1.496H26.254a1.496 1.496 0 0 1-1.496-1.496v-2.625a1.5 1.5 0 0 1 1.496-1.5m0 0"/>
            </clipPath>
            <clipPath id="45fd72ad-99a0-478c-a840-b6815a33d244">
                <path d="M29.594 27.281h89.808v89.809H29.594Zm0 0"/>
            </clipPath>
            <clipPath id="515c2d63-ed6a-4e16-8826-f0bb2a859e79">
                <path d="M43.813 27.281h61.37c3.774 0 7.387 1.496 10.055 4.164a14.2 14.2 0 0 1 4.164 10.055v61.371a14.22 14.22 0 0 1-14.218 14.219H43.813c-3.77 0-7.387-1.5-10.055-4.164a14.24 14.24 0 0 1-4.164-10.055V41.5a14.22 14.22 0 0 1 14.219-14.219m0 0"/>
            </clipPath>
            <clipPath id="44b1c0c4-6be0-4192-94e2-eb08107c1063">
                <path d="M39.492 36.363h17.203v17.203H39.492Zm0 0"/>
            </clipPath>
            <clipPath id="fb47399a-6326-4e41-ae92-e99af4611c73">
                <path d="M48.094 36.363a8.602 8.602 0 1 0 .001 17.205 8.602 8.602 0 0 0-.001-17.205m0 0"/>
            </clipPath>
            <clipPath id="1e617d14-912e-4ba5-8040-1f928f5ccbf5">
                <path d="M39.492 93.84h35.012v5.62H39.492Zm0 0"/>
            </clipPath>
            <clipPath id="5e11801c-8c92-4748-8bda-a4f65780554b">
                <path d="M40.988 93.84h32.016c.824 0 1.496.672 1.496 1.496v2.629c0 .824-.672 1.496-1.496 1.496H40.988a1.5 1.5 0 0 1-1.496-1.496v-2.63c0-.823.672-1.495 1.496-1.495m0 0"/>
            </clipPath>
            <clipPath id="313975df-5d72-420b-98aa-614958081d85">
                <path d="M39.492 101.922h70.028v5.621H39.492Zm0 0"/>
            </clipPath>
            <clipPath id="b0ccc8cd-67ab-4f57-8c08-ac211a42e7b4">
                <path d="M40.988 101.922h67.02a1.5 1.5 0 0 1 1.5 1.496v2.629a1.5 1.5 0 0 1-1.5 1.496h-67.02a1.5 1.5 0 0 1-1.496-1.496v-2.629c0-.824.672-1.496 1.496-1.496m0 0"/>
            </clipPath>
        </defs>
        <g clip-path="url(#acb3274a-7abb-47bd-8197-a8c841f2e949)">
            <g clip-path="url(#13b9f808-ad68-4d2d-bba5-ed640f528f91)">
                <path d="M.129 0h89.809v89.809H.127Zm0 0" fill="#ffffff"/>
                <path stroke-width="5.987" stroke="#000000" d="M14.348 0h61.367c3.773 0 7.39 1.5 10.058 4.164a14.24 14.24 0 0 1 4.164 10.055v61.37a14.22 14.22 0 0 1-14.223 14.219H14.349A14.22 14.22 0 0 1 .129 75.59V14.22A14.22 14.22 0 0 1 14.348 0Zm0 0" fill="none"/>
            </g>
        </g>
        <g clip-path="url(#b983cf72-1f9a-4810-89c8-eada479ab5cc)">
            <g clip-path="url(#84737c77-8c2f-428e-b0d0-d8c111dbef2b)">
                <path d="M10.023 9.086h17.204v17.203H10.023Zm0 0" fill="#1c1e1f"/>
            </g>
        </g>
        <g clip-path="url(#fc2a8db6-3cf1-41b2-a860-735eff84a26d)">
            <g clip-path="url(#44adada1-be4e-46cd-add7-6a81c4a7ec12)">
                <path d="M10.023 66.559H45.04v5.62H10.023Zm0 0" fill="#000000"/>
            </g>
        </g>
        <g clip-path="url(#2dc6859e-30aa-42aa-b73e-0a2b923a168d)">
            <g clip-path="url(#5b5745e0-5054-4f7d-bdd7-651681c433ad)">
                <path d="M10.023 74.645h70.004v5.617H10.023Zm0 0" fill="#000000"/>
            </g>
        </g>
        <g clip-path="url(#dfecb2bc-dadc-443c-9cc5-7bd80ba9dbfb)">
            <g clip-path="url(#d8d4e6a8-254f-4429-aa4a-9ee031059fb4)">
                <path d="M14.86 13.64h89.812v89.81H14.859Zm0 0" fill="#ffffff"/>
                <path stroke-width="5.987" stroke="#000000" d="M29.081 13.64h61.367a14.22 14.22 0 0 1 14.223 14.219V89.23a14.22 14.22 0 0 1-14.223 14.22H29.081A14.22 14.22 0 0 1 14.86 89.23V27.86a14.22 14.22 0 0 1 14.22-14.22Zm0 0" fill="none"/>
            </g>
        </g>
        <g clip-path="url(#f36043ff-a28a-4cf3-9d8d-87ba1e38c90a)">
            <g clip-path="url(#7a9cd0b7-3ec5-43be-a838-2e76590b2d6c)">
                <path d="M24.758 22.727H41.96V39.93H24.758Zm0 0" fill="#1c1e1f"/>
            </g>
        </g>
        <g clip-path="url(#21d87f61-6f1a-4515-8253-8f906791feb6)">
            <g clip-path="url(#e718cf44-9ca7-43fe-9b52-b527b36243d1)">
                <path d="M24.758 80.2h35.015v5.62H24.758Zm0 0" fill="#000000"/>
            </g>
        </g>
        <g clip-path="url(#ce5527cd-969f-42ad-865d-75606cc97546)">
            <g clip-path="url(#2272b6ab-1b2f-4a17-bd4d-1713316dd2ba)">
                <path d="M24.758 88.281h70.004v5.621H24.758Zm0 0" fill="#000000"/>
            </g>
        </g>
        <g clip-path="url(#45fd72ad-99a0-478c-a840-b6815a33d244)">
            <g clip-path="url(#515c2d63-ed6a-4e16-8826-f0bb2a859e79)">
                <path d="M29.594 27.281h89.808v89.809H29.594Zm0 0" fill="#ffffff"/>
                <path stroke-width="5.987" stroke="#000000" d="M43.813 27.281h61.371c3.773 0 7.387 1.497 10.055 4.164a14.2 14.2 0 0 1 4.164 10.055v61.371a14.22 14.22 0 0 1-14.219 14.219H43.813c-3.77 0-7.387-1.5-10.055-4.164a14.24 14.24 0 0 1-4.164-10.055v-61.37a14.22 14.22 0 0 1 14.219-14.219Zm0 0" fill="none"/>
            </g>
        </g>
        <g clip-path="url(#44b1c0c4-6be0-4192-94e2-eb08107c1063)">
            <g clip-path="url(#fb47399a-6326-4e41-ae92-e99af4611c73)">
                <path d="M39.492 36.363h17.203v17.203H39.492Zm0 0" fill="#1c1e1f"/>
            </g>
        </g>
        <g clip-path="url(#1e617d14-912e-4ba5-8040-1f928f5ccbf5)">
            <g clip-path="url(#5e11801c-8c92-4748-8bda-a4f65780554b)">
                <path d="M39.492 93.84h35.012v5.62H39.492Zm0 0" fill="#000000"/>
            </g>
        </g>
        <g clip-path="url(#313975df-5d72-420b-98aa-614958081d85)">
            <g clip-path="url(#b0ccc8cd-67ab-4f57-8c08-ac211a42e7b4)">
                <path d="M39.492 101.922h70.004v5.621H39.492Zm0 0" fill="#000000"/>
            </g>
        </g>
    </g>
</svg>
